<?xml version="1.0" standalone="no"?>
<!DOCTYPE svg PUBLIC "-//W3C//DTD SVG 20010904//EN"
 "http://www.w3.org/TR/2001/REC-SVG-20010904/DTD/svg10.dtd">
<svg version="1.0" xmlns="http://www.w3.org/2000/svg"
 width="1280.000000pt" height="853.000000pt" viewBox="0 0 1280.000000 853.000000"
 preserveAspectRatio="xMidYMid meet">
<metadata>
Created by potrace 1.15, written by Peter Selinger 2001-2017
</metadata>
<g transform="translate(0.000000,853.000000) scale(0.100000,-0.100000)"
fill="#000000" stroke="none">
<path d="M740 8523 c-61 -10 -143 -38 -242 -84 -177 -81 -257 -76 -406 24
l-78 52 51 -76 c102 -152 107 -230 26 -407 -62 -136 -84 -211 -84 -287 0 -87
50 -172 145 -245 l44 -34 -76 -75 c-92 -92 -115 -134 -114 -216 1 -75 18 -132
85 -282 47 -105 53 -126 53 -188 1 -81 -25 -147 -98 -249 l-44 -61 40 -55 c22
-30 54 -82 71 -115 28 -52 32 -70 31 -135 -1 -69 -5 -85 -58 -202 -61 -135
-91 -251 -81 -308 14 -72 78 -163 157 -220 l37 -27 -60 -52 c-72 -64 -114
-124 -130 -184 -16 -67 7 -169 77 -324 53 -118 57 -134 58 -203 1 -65 -3 -83
-31 -135 -17 -33 -49 -84 -71 -114 l-39 -55 52 -76 c110 -162 118 -241 41
-409 -65 -141 -88 -217 -90 -291 -1 -85 33 -150 126 -234 l68 -62 -26 -14
c-35 -19 -120 -114 -143 -159 -46 -90 -31 -187 55 -379 53 -117 57 -133 58
-202 1 -66 -3 -82 -32 -140 -19 -36 -51 -88 -72 -115 l-37 -51 40 -54 c22 -30
54 -84 71 -120 26 -54 31 -76 30 -135 0 -62 -6 -83 -53 -188 -67 -150 -84
-207 -85 -282 -1 -82 22 -125 114 -216 l77 -75 -40 -30 c-46 -34 -107 -105
-132 -154 -40 -77 -20 -195 66 -382 81 -178 76 -255 -28 -410 l-54 -80 48 35
c70 51 164 96 216 103 60 9 118 -7 252 -66 61 -26 145 -56 187 -65 71 -15 81
-15 130 -1 65 20 135 70 186 135 l39 49 61 -68 c133 -147 245 -157 492 -45
158 72 211 79 306 44 31 -12 91 -45 133 -73 l76 -52 76 52 c156 106 240 116
391 49 214 -97 321 -117 410 -78 45 21 138 103 171 153 l17 24 17 -24 c9 -14
41 -49 70 -78 121 -120 227 -124 454 -21 130 59 185 73 249 66 55 -7 163 -58
230 -109 l44 -35 77 52 c42 29 102 62 133 74 95 35 148 28 306 -44 111 -50
199 -75 273 -77 72 -2 141 37 221 124 l63 67 37 -49 c46 -61 122 -118 179
-135 72 -21 181 1 319 64 98 46 179 71 224 71 56 0 137 -33 223 -91 l84 -56
51 38 c71 54 166 99 224 106 59 7 126 -11 247 -67 162 -74 276 -91 355 -50 61
31 111 73 150 125 l33 44 62 -67 c81 -87 150 -126 222 -124 74 2 162 27 273
77 158 72 211 79 306 44 31 -12 91 -45 133 -74 l77 -52 48 37 c27 21 78 53
115 71 57 29 76 34 141 34 69 0 84 -4 195 -54 137 -62 158 -68 240 -80 42 -6
73 -5 103 4 54 17 137 79 182 137 l34 45 71 -73 c82 -85 144 -118 218 -116 63
1 184 35 256 71 81 42 173 71 220 71 58 0 143 -35 230 -94 l76 -52 76 52 c86
58 172 94 227 94 53 0 103 -16 223 -71 65 -29 140 -55 190 -65 83 -16 85 -15
144 6 48 18 75 38 135 100 l75 77 35 -45 c44 -58 127 -120 182 -137 70 -21
196 4 308 60 77 38 189 75 231 75 59 0 142 -33 224 -89 l74 -50 -50 74 c-56
81 -89 165 -89 222 0 54 16 104 70 223 57 125 74 196 68 278 -3 51 -11 71 -43
118 -21 31 -62 75 -91 98 l-52 43 68 61 c86 78 120 142 120 225 0 71 -30 177
-75 267 -40 79 -65 161 -65 211 0 56 36 142 95 229 l52 76 -39 55 c-58 79 -98
164 -105 219 -7 63 8 120 63 241 76 166 93 281 55 366 -19 41 -103 135 -150
166 l-25 16 30 22 c16 13 50 43 75 69 121 123 119 233 -7 510 -34 75 -39 94
-39 160 1 64 5 83 32 135 17 33 49 85 71 115 l40 55 -43 60 c-92 129 -119 218
-96 312 7 26 32 91 56 143 77 168 94 283 54 369 -11 26 -51 75 -93 116 l-74
70 43 33 c49 37 118 123 134 165 15 39 14 132 -3 192 -7 28 -37 104 -67 170
-50 111 -54 126 -54 195 0 65 5 84 34 141 18 37 50 88 71 115 l37 48 -52 77
c-29 42 -62 102 -74 133 -35 95 -28 148 44 306 53 116 75 199 75 276 0 77 -37
142 -124 220 l-64 57 53 43 c29 24 70 69 91 101 68 102 60 201 -32 410 -65
147 -74 206 -48 289 10 33 42 94 70 136 l53 77 -74 -50 c-82 -56 -166 -89
-222 -89 -42 1 -127 29 -250 84 -97 43 -209 69 -261 60 -72 -13 -149 -66 -212
-145 l-37 -47 -57 64 c-62 69 -124 111 -186 125 -61 14 -174 -14 -319 -79
-117 -53 -131 -57 -201 -57 -65 1 -83 5 -135 32 -33 17 -85 49 -115 71 l-55
40 -60 -43 c-112 -80 -161 -99 -245 -100 -70 0 -84 4 -202 57 -263 118 -363
109 -504 -46 l-59 -64 -35 46 c-50 65 -123 120 -186 138 -50 14 -62 14 -130 0
-41 -8 -132 -40 -202 -72 -117 -53 -133 -57 -202 -58 -65 -1 -84 3 -140 31
-36 18 -88 50 -116 72 l-52 39 -53 -40 c-74 -56 -167 -98 -231 -105 -59 -6
-125 14 -275 81 -213 96 -314 80 -455 -72 l-55 -60 -34 44 c-51 67 -140 130
-198 143 -82 17 -161 -2 -336 -82 -100 -46 -117 -51 -185 -51 -64 -1 -84 3
-140 30 -36 18 -89 50 -118 72 l-54 40 -51 -39 c-29 -22 -81 -54 -117 -72 -56
-28 -74 -32 -140 -31 -68 0 -85 5 -185 51 -174 81 -271 103 -348 79 -59 -18
-147 -84 -189 -142 l-31 -43 -62 67 c-144 156 -238 163 -515 39 -106 -48 -121
-52 -190 -52 -64 1 -83 5 -135 32 -33 17 -85 49 -114 71 l-55 39 -58 -43
c-102 -75 -162 -99 -248 -98 -69 0 -85 5 -200 56 -198 88 -292 102 -381 57
-45 -22 -140 -108 -158 -143 l-14 -25 -71 73 c-145 150 -229 156 -496 38 -115
-51 -131 -56 -200 -56 -66 -1 -83 3 -140 32 -36 19 -88 51 -115 72 l-51 37
-54 -39 c-30 -22 -82 -54 -115 -71 -51 -26 -71 -31 -135 -31 -70 0 -84 4 -200
56 -158 70 -262 95 -327 79 -60 -16 -118 -56 -185 -130 l-54 -60 -24 36 c-40
58 -134 130 -192 148 -52 15 -62 16 -108 8z m1564 -232 c61 -46 119 -76 162
-85 46 -10 145 31 257 108 108 73 144 84 229 68 118 -22 202 -76 236 -152 14
-31 16 -33 21 -14 21 77 117 143 237 166 87 16 123 5 228 -67 167 -113 236
-131 332 -82 55 28 180 124 228 175 l29 31 79 -71 c141 -124 242 -177 305
-162 58 15 121 47 216 112 l99 67 77 -1 c121 -1 239 -63 276 -143 l18 -41 17
38 c32 71 129 130 243 147 72 11 110 -1 207 -66 121 -81 194 -114 251 -113 60
1 166 65 273 165 l76 71 52 -50 c106 -101 217 -175 278 -187 51 -9 131 24 246
100 114 77 149 90 220 81 116 -14 214 -70 251 -145 l20 -40 17 40 c31 70 138
132 249 145 72 9 107 -4 221 -81 115 -77 194 -109 247 -100 54 9 142 65 243
154 l90 79 70 -65 c81 -76 167 -134 233 -159 45 -18 47 -17 111 5 36 12 112
54 169 91 111 74 147 86 220 75 116 -17 210 -75 243 -148 l17 -39 23 46 c39
81 149 138 271 140 l77 1 98 -67 c145 -98 218 -126 284 -108 51 14 168 93 250
168 l65 60 59 -55 c105 -97 202 -161 270 -177 47 -12 133 23 248 101 116 77
151 89 226 78 115 -17 209 -72 242 -140 l23 -47 13 30 c31 74 146 152 225 152
48 0 63 -7 149 -70 118 -87 229 -119 333 -97 38 8 38 8 30 -20 -14 -50 -6
-146 16 -204 12 -31 49 -94 82 -140 67 -93 74 -112 65 -170 -13 -80 -81 -172
-148 -200 l-28 -11 52 -32 c60 -36 98 -97 124 -196 25 -100 17 -133 -64 -254
-84 -125 -116 -203 -107 -257 9 -53 67 -145 158 -249 44 -51 73 -92 67 -95 -6
-4 -44 -45 -85 -92 -76 -86 -145 -206 -145 -250 0 -41 48 -140 115 -238 35
-52 67 -110 71 -130 8 -45 -2 -115 -28 -184 -23 -62 -101 -147 -139 -153 -22
-4 -21 -5 12 -20 71 -31 116 -97 145 -210 25 -98 16 -136 -60 -247 -66 -97
-116 -202 -116 -243 0 -54 82 -183 187 -298 l51 -55 -55 -59 c-104 -113 -183
-238 -183 -293 0 -41 41 -128 113 -237 l72 -110 -1 -70 c-1 -48 -9 -91 -24
-130 -25 -65 -90 -143 -126 -152 -13 -4 -24 -10 -24 -14 0 -4 11 -10 24 -14
36 -9 101 -87 126 -152 15 -40 23 -82 24 -130 l1 -71 -67 -101 c-70 -104 -118
-205 -118 -244 0 -56 78 -181 183 -294 l55 -59 -51 -55 c-105 -115 -187 -244
-187 -298 0 -41 50 -146 116 -243 77 -112 85 -149 60 -249 -26 -99 -64 -160
-124 -196 l-52 -32 29 -12 c73 -30 139 -126 148 -214 4 -44 1 -56 -24 -92 -91
-133 -114 -170 -129 -217 -19 -56 -23 -132 -12 -184 7 -32 7 -32 -25 -25 -52
11 -128 7 -184 -12 -47 -15 -84 -38 -217 -129 -36 -25 -48 -28 -92 -24 -89 9
-172 66 -213 144 l-18 36 -23 -48 c-39 -80 -157 -139 -282 -140 -66 0 -67 1
-166 68 -103 71 -198 116 -242 117 -57 0 -182 -77 -297 -184 l-58 -54 -59 55
c-115 107 -239 183 -296 183 -44 -1 -139 -46 -242 -117 -99 -67 -100 -68 -166
-68 -125 1 -243 60 -282 140 l-23 47 -17 -39 c-34 -77 -133 -134 -256 -148
-73 -9 -105 3 -212 79 -81 57 -185 106 -225 106 -59 0 -248 -125 -331 -218
l-19 -22 -71 64 c-128 113 -229 175 -289 176 -40 0 -143 -50 -246 -118 -99
-67 -131 -77 -199 -67 -115 17 -216 76 -247 144 l-18 42 -12 -28 c-32 -76
-114 -130 -232 -153 -86 -17 -120 -8 -223 61 -103 69 -207 119 -247 119 -62
-1 -170 -68 -285 -178 l-67 -64 -56 53 c-109 104 -219 174 -289 186 -43 7
-153 -42 -250 -112 -93 -66 -128 -78 -200 -70 -120 13 -222 72 -256 146 l-16
38 -22 -43 c-11 -24 -36 -55 -54 -69 -43 -32 -135 -65 -202 -73 -64 -8 -113
11 -210 81 -76 54 -184 105 -223 105 -59 0 -183 -77 -304 -188 l-56 -52 -19
22 c-83 93 -272 218 -331 218 -40 0 -140 -48 -245 -118 l-101 -67 -71 1 c-100
2 -178 34 -238 94 -25 27 -48 59 -50 72 -4 21 -5 20 -19 -12 -39 -87 -160
-152 -286 -154 l-71 -1 -100 68 c-103 71 -198 116 -242 117 -57 0 -181 -76
-296 -183 l-59 -55 -65 60 c-110 101 -234 178 -290 178 -43 0 -136 -45 -240
-115 -116 -78 -151 -86 -250 -61 -99 26 -160 64 -196 124 l-32 52 -12 -30
c-17 -41 -78 -102 -125 -125 -26 -13 -61 -20 -100 -20 -58 0 -63 2 -142 62
-123 92 -228 123 -336 100 l-38 -8 8 38 c23 106 -10 214 -103 342 -60 82 -69
105 -61 160 10 81 78 172 148 201 l31 13 -45 24 c-72 36 -128 131 -143 240
-10 80 1 113 79 230 86 128 114 202 98 260 -14 53 -73 140 -158 238 l-71 80
55 59 c99 107 163 205 177 272 10 46 -26 133 -105 252 -38 56 -71 119 -75 138
-17 89 27 218 97 287 27 26 56 47 64 47 8 0 15 5 15 10 0 6 -6 10 -13 10 -7 0
-29 11 -49 25 -71 48 -132 214 -114 310 4 20 37 79 73 132 36 53 77 126 90
163 22 58 23 72 14 108 -14 52 -92 167 -169 252 l-59 65 59 65 c78 85 155 201
169 252 9 36 8 50 -14 108 -13 37 -54 110 -90 163 -36 53 -69 112 -73 132 -18
96 43 262 114 310 20 14 42 25 49 25 22 0 14 17 -9 24 -55 14 -111 92 -142
195 -32 108 -20 154 70 283 67 95 108 197 98 242 -14 68 -79 167 -178 273
l-53 57 69 79 c84 95 144 186 158 238 18 65 -9 134 -108 281 l-67 101 0 78 c1
71 5 86 40 156 34 67 47 82 91 109 l52 30 -31 14 c-72 32 -137 126 -145 211
-5 53 10 87 74 169 77 99 114 218 94 304 -6 27 -9 50 -8 51 2 1 31 -2 64 -8
54 -9 70 -8 134 13 40 13 94 38 119 55 25 17 70 48 100 68 68 48 114 49 198 7
59 -30 94 -64 125 -123 l14 -28 19 41 c37 81 154 142 276 144 l77 1 98 -67
c145 -98 218 -126 284 -108 50 13 166 92 250 168 l65 59 59 -54 c32 -30 81
-71 110 -92z"/>
<path d="M6414 7746 c-61 -42 -137 -125 -165 -183 -11 -23 -23 -67 -26 -98 -5
-43 -9 -55 -23 -55 -10 0 -43 -29 -75 -65 l-57 -65 76 0 76 0 1 -187 c1 -104
4 -216 8 -250 l6 -62 78 61 c50 38 76 65 73 74 -3 8 -9 93 -12 189 l-7 175 29
0 c25 0 37 10 72 60 23 32 42 61 42 65 0 3 -34 5 -77 5 l-76 0 7 101 c10 161
42 194 113 120 l38 -40 56 54 c53 51 55 54 39 74 -51 69 -120 78 -196 27z"/>
<path d="M5861 7578 c-33 -29 -60 -56 -60 -60 -1 -3 11 -20 25 -37 37 -45 70
-41 139 15 l57 47 -29 18 c-16 10 -36 30 -43 44 -7 14 -17 25 -22 25 -4 0 -35
-24 -67 -52z"/>
<path d="M6623 7580 c-35 -28 -63 -57 -63 -65 0 -25 45 -67 72 -67 26 0 70 25
115 65 l22 20 -27 26 c-15 14 -34 36 -42 49 l-15 23 -62 -51z"/>
<path d="M5518 7482 c-60 -51 -67 -61 -67 -94 -1 -25 -6 -38 -15 -38 -12 0
-106 -110 -106 -124 0 -3 26 -6 58 -6 l58 0 12 -177 c13 -218 36 -293 88 -293
24 0 163 120 157 135 -3 10 -13 13 -28 9 -17 -4 -27 0 -39 18 -19 30 -36 138
-36 241 0 69 2 77 19 77 11 0 37 23 62 57 69 90 70 84 -12 81 l-72 -3 2 88 c1
48 -1 87 -6 87 -4 -1 -38 -27 -75 -58z"/>
<path d="M4015 7398 c-117 -42 -246 -175 -300 -308 -26 -67 -32 -211 -10 -285
47 -162 177 -279 325 -292 79 -7 103 0 157 50 101 93 158 203 77 150 -44 -29
-184 -25 -243 6 -143 76 -239 280 -198 421 22 75 61 111 126 118 39 3 58 0 90
-19 25 -14 45 -19 50 -13 45 50 91 120 91 140 0 13 -9 28 -19 34 -25 13 -107
12 -146 -2z"/>
<path d="M5841 7333 c-81 -67 -103 -101 -58 -90 56 15 67 -27 74 -265 3 -109
8 -198 11 -198 3 0 36 23 74 52 l68 52 0 110 c0 144 -18 331 -35 373 -9 22
-21 33 -34 33 -11 0 -56 -30 -100 -67z"/>
<path d="M6589 7337 c-91 -69 -110 -97 -60 -89 51 7 56 -16 56 -255 -1 -117 1
-213 2 -213 2 0 38 23 80 51 l75 51 -4 232 c-3 200 -6 236 -21 259 -10 15 -24
27 -31 27 -8 0 -51 -28 -97 -63z"/>
<path d="M7082 7339 c-79 -31 -183 -135 -212 -214 -37 -100 -15 -211 60 -305
40 -50 109 -84 154 -76 38 7 166 94 166 114 0 8 -15 12 -42 12 -117 0 -217
123 -219 270 -2 137 101 164 161 43 l26 -52 49 32 c27 18 56 44 64 59 23 40
-5 93 -62 118 -53 24 -78 24 -145 -1z"/>
<path d="M5158 7313 c-19 -21 -50 -60 -69 -88 l-34 -50 -7 53 c-18 120 -44
121 -155 10 -58 -58 -80 -87 -74 -96 7 -12 12 -12 29 -1 49 30 72 -37 99 -287
10 -90 20 -164 23 -164 3 1 33 27 66 58 l62 57 -8 65 c-5 36 -11 108 -15 160
-6 85 -5 98 12 119 25 31 56 22 74 -22 7 -18 14 -34 15 -35 3 -4 62 60 96 103
18 23 19 31 9 64 -14 48 -47 91 -70 91 -9 0 -33 -17 -53 -37z"/>
<path d="M8202 7300 c-62 -29 -82 -44 -82 -59 0 -31 -11 -50 -25 -45 -7 3 -41
-16 -75 -43 l-62 -48 38 -12 c22 -6 47 -12 57 -12 28 -1 30 -22 7 -137 -31
-163 -37 -282 -16 -322 22 -42 51 -42 144 3 53 25 70 38 66 50 -3 8 -14 15
-25 15 -42 0 -49 64 -24 220 20 125 22 129 45 123 13 -4 41 11 84 43 36 27 65
51 66 54 0 3 -30 11 -66 17 -36 6 -68 14 -71 17 -3 3 2 42 12 87 9 44 15 82
13 84 -2 2 -40 -14 -86 -35z"/>
<path d="M7565 7247 c-70 -44 -92 -75 -47 -69 36 5 71 -24 97 -81 13 -28 23
-53 21 -54 -2 -2 -32 -8 -67 -14 -102 -16 -193 -69 -225 -131 -27 -53 -16
-107 34 -160 57 -62 131 -58 232 11 76 52 76 67 1 66 -64 0 -96 16 -134 67
-22 30 -16 62 15 79 33 17 114 -8 161 -50 45 -40 90 -128 108 -208 7 -29 16
-53 21 -53 19 0 136 74 133 84 -84 272 -152 452 -193 511 -39 56 -68 57 -157
2z"/>
<path d="M4552 7239 c-89 -44 -189 -203 -199 -316 -8 -82 16 -157 67 -216 72
-81 160 -107 226 -66 42 26 148 169 135 182 -6 6 -18 3 -33 -7 -12 -9 -40 -21
-62 -27 -33 -9 -45 -7 -92 16 -85 42 -144 132 -144 220 0 77 85 115 130 58 27
-35 21 -74 -21 -126 -24 -30 -29 -41 -19 -50 9 -9 28 6 80 63 119 129 142 197
87 247 -53 48 -90 54 -155 22z"/>
<path d="M8583 7041 c-223 -106 -282 -353 -123 -513 43 -44 51 -48 94 -48 47
0 95 19 169 68 21 14 36 30 34 35 -2 6 -28 11 -58 11 -72 1 -117 34 -155 112
-35 72 -42 149 -19 209 19 50 45 70 81 61 27 -7 64 -59 64 -90 0 -21 -64 -86
-85 -86 -18 0 -26 -13 -16 -28 14 -23 229 78 251 118 17 31 12 90 -11 121 -47
66 -127 77 -226 30z"/>
<path d="M10720 3221 c-461 -102 -772 -510 -747 -980 14 -266 132 -500 342
-678 l49 -42 -49 -73 c-156 -235 -323 -408 -486 -505 -58 -35 -148 -81 -200
-103 -52 -23 -103 -45 -114 -51 -20 -9 389 -5 605 7 l105 5 100 -206 100 -207
85 63 c188 140 343 317 432 492 l30 60 20 -34 c62 -103 122 -181 200 -259 85
-85 264 -230 284 -230 6 0 54 90 107 201 l97 201 202 -6 c112 -4 277 -9 368
-12 91 -3 163 -4 160 -1 -3 3 -45 21 -95 42 -102 42 -212 100 -300 158 -121
81 -289 265 -422 462 l-41 60 57 60 c112 120 201 288 237 450 21 95 24 278 5
375 -70 359 -336 643 -696 742 -105 29 -323 34 -435 9z"/>
</g>
</svg>
